<?xml version="1.0" encoding="utf-8"?>
<!-- Generator: Adobe Illustrator 17.1.0, SVG Export Plug-In . SVG Version: 6.00 Build 0)  -->
<!DOCTYPE svg PUBLIC "-//W3C//DTD SVG 1.1//EN" "http://www.w3.org/Graphics/SVG/1.1/DTD/svg11.dtd">
<svg version="1.1" id="Layer_1" xmlns="http://www.w3.org/2000/svg" xmlns:xlink="http://www.w3.org/1999/xlink" x="0px" y="0px"
	 viewBox="0 0 20 20" enable-background="new 0 0 20 20" xml:space="preserve">
<rect fill="#0E16AA" width="20" height="20"/>
<rect x="8" y="18" fill="#FFFFFF" width="1" height="1"/>
<rect x="9" y="17" fill="#FFFFFF" width="1" height="1"/>
<rect x="10" y="16" fill="#FFFFFF" width="1" height="1"/>
<rect x="11" y="15" fill="#FFFFFF" width="1" height="1"/>
<rect x="12" y="14" fill="#FFFFFF" width="1" height="1"/>
<rect x="13" y="13" fill="#FFFFFF" width="1" height="1"/>
<rect x="14" y="12" fill="#FFFFFF" width="1" height="1"/>
<rect x="15" y="11" fill="#FFFFFF" width="1" height="1"/>
<rect x="11" y="18" fill="#FFFFFF" width="1" height="1"/>
<rect x="12" y="17" fill="#FFFFFF" width="1" height="1"/>
<rect x="13" y="16" fill="#FFFFFF" width="1" height="1"/>
<rect x="14" y="15" fill="#FFFFFF" width="1" height="1"/>
<rect x="15" y="14" fill="#FFFFFF" width="1" height="1"/>
<rect x="14" y="18" fill="#FFFFFF" width="1" height="1"/>
<rect x="15" y="17" fill="#FFFFFF" width="1" height="1"/>
<rect x="17" y="18" fill="#FFFFFF" width="1" height="1"/>
<rect x="18" y="17" fill="#FFFFFF" width="1" height="1"/>
<rect x="16" y="16" fill="#FFFFFF" width="1" height="1"/>
<rect x="17" y="15" fill="#FFFFFF" width="1" height="1"/>
<rect x="18" y="14" fill="#FFFFFF" width="1" height="1"/>
<rect x="16" y="13" fill="#FFFFFF" width="1" height="1"/>
<rect x="17" y="12" fill="#FFFFFF" width="1" height="1"/>
<rect x="18" y="11" fill="#FFFFFF" width="1" height="1"/>
<rect x="16" y="10" fill="#FFFFFF" width="1" height="1"/>
<rect x="17" y="9" fill="#FFFFFF" width="1" height="1"/>
<rect x="18" y="8" fill="#FFFFFF" width="1" height="1"/>
</svg>
